<svg width="64" height="64" viewBox="0 0 64 64" fill="none" xmlns="http://www.w3.org/2000/svg">
<rect width="64" height="64" rx="12" fill="url(#paint0_linear)"/>
<path d="M31.725 14.7039L33.0209 12.4639C33.8208 11.0639 35.6045 10.5919 37.0044 11.3919C38.4042 12.1919 38.8761 13.9759 38.0762 15.3759L25.5898 36.9919H34.6206C37.5484 36.9919 39.1881 40.4319 37.9162 42.8159H11.4396C9.82378 42.8159 8.52795 41.5199 8.52795 39.9039C8.52795 38.2879 9.82378 36.9919 11.4396 36.9919H18.8626L28.3654 20.5199L25.3978 15.3679C24.598 13.9679 25.0698 12.1999 26.4697 11.3839C27.8696 10.5839 29.6373 11.0559 30.4532 12.4559L31.725 14.7039ZM20.4945 45.8159L17.6948 50.6719C16.8949 52.0719 15.1112 52.5439 13.7113 51.7439C12.3115 50.9439 11.8395 49.1599 12.6394 47.7599L14.7192 44.1599C17.0709 43.4319 18.9826 43.9919 20.4945 45.8159ZM44.6034 37.0079H52.1785C53.7942 37.0079 55.0901 38.3039 55.0901 39.9199C55.0901 41.5359 53.7942 42.8319 52.1785 42.8319H47.971L50.8106 47.7599C51.6105 49.1599 51.1386 50.9279 49.7388 51.7439C48.339 52.5439 46.5712 52.0719 45.7553 50.6719C40.9718 42.3759 37.3804 36.1679 34.9966 32.0319C32.5569 27.8239 34.3008 23.5999 36.0205 22.1679C37.9322 25.4479 40.788 30.3999 44.6034 37.0079Z" fill="white"/>
<defs>
<linearGradient id="paint0_linear" x1="32" y1="0" x2="32" y2="64" gradientUnits="userSpaceOnUse">
<stop stop-color="#0ED4FC"/>
<stop offset="1" stop-color="#0C57EF"/>
</linearGradient>
</defs>
</svg>
