<svg width="64" height="64" viewBox="0 0 64 64" fill="none" xmlns="http://www.w3.org/2000/svg">
<rect width="64" height="64" rx="12" fill="white"/>
<path d="M44.8621 38.46C49.444 35.9199 52.9433 33.9796 53.2616 33.8029C54.2112 33.2765 55.206 31.9332 53.2616 30.8593C52.6366 30.5136 49.2316 28.6328 44.8568 26.2153L38.8398 32.3567L44.8621 38.46Z" fill="#FFE300"/>
<path d="M38.8394 32.3567L19.5947 51.9983C20.0294 52.0542 20.5521 51.9376 21.1533 51.6043C22.3981 50.9142 35.7658 43.5027 44.8621 38.4594L38.8394 32.3567Z" fill="#FF4E54"/>
<path d="M38.8395 32.3567L44.8565 26.2155C44.8565 26.2155 22.4923 13.8566 21.1533 13.1168C20.6388 12.8323 20.0776 12.7331 19.5811 12.8451L38.8395 32.3567Z" fill="#00F085"/>
<path d="M38.8394 32.3569L19.5806 12.8455C18.7852 13.0252 18.1333 13.7225 18.1333 15.1242V49.6576C18.1333 50.9776 18.6461 51.9059 19.5945 51.9985L38.8394 32.3569Z" fill="#00E0FF"/>
</svg>
