<svg width="64" height="64" viewBox="0 0 64 64" fill="none" xmlns="http://www.w3.org/2000/svg">
<rect y="-0.000244141" width="64" height="64.0002" rx="12" fill="#55ACEE"/>
<path d="M31.0416 26.0099L31.1088 27.1173L29.9896 26.9817C25.9159 26.4619 22.3569 24.6993 19.3351 21.739L17.8579 20.2702L17.4773 21.3549C16.6715 23.7729 17.1863 26.3263 18.8651 28.0437C19.7604 28.9929 19.5589 29.1285 18.0145 28.5635C17.4773 28.3827 17.0072 28.2471 16.9625 28.3149C16.8059 28.4731 17.3431 30.5294 17.7683 31.343C18.3503 32.4729 19.5365 33.5801 20.8348 34.2354L21.9316 34.7551L20.6333 34.7778C19.3799 34.7778 19.3351 34.8003 19.4695 35.2749C19.9171 36.7437 21.6853 38.303 23.6551 38.9809L25.0429 39.4554L23.8341 40.1785C22.0435 41.2181 19.9395 41.8055 17.8355 41.8507C16.8281 41.8734 16 41.9637 16 42.0315C16 42.2575 18.7308 43.523 20.32 44.0201C25.0876 45.4889 30.7507 44.8562 35.0035 42.3479C38.0252 40.5627 41.0469 37.0149 42.4571 33.5801C43.2181 31.7497 43.9792 28.4053 43.9792 26.8009C43.9792 25.7614 44.0463 25.6258 45.2997 24.383C46.0384 23.6598 46.7323 22.8689 46.8667 22.643C47.0904 22.2137 47.0681 22.2137 45.9265 22.5978C44.024 23.2757 43.7553 23.1853 44.6955 22.1685C45.3893 21.4453 46.2175 20.1346 46.2175 19.7505C46.2175 19.6827 45.8817 19.7957 45.5012 19.999C45.0984 20.225 44.2031 20.5639 43.5315 20.7674L42.3228 21.1515L41.226 20.4058C40.6217 19.999 39.7711 19.5471 39.3235 19.4115C38.1819 19.0951 36.436 19.1403 35.4064 19.5019C32.6084 20.5189 30.8401 23.1401 31.0416 26.0099Z" fill="white"/>
</svg>
