<svg width="64" height="64" viewBox="0 0 64 64" fill="none" xmlns="http://www.w3.org/2000/svg">
<rect y="-0.000244141" width="64" height="64.0002" rx="12" fill="#FF0000"/>
<path d="M48.3533 24.0975C47.9608 22.5895 46.8041 21.4021 45.3355 20.999C42.6739 20.2666 32 20.2666 32 20.2666C32 20.2666 21.3261 20.2666 18.6644 20.999C17.1956 21.4021 16.039 22.5895 15.6464 24.0975C14.9334 26.8307 14.9333 32.5333 14.9333 32.5333C14.9333 32.5333 14.9334 38.2357 15.6464 40.969C16.039 42.477 17.1956 43.6645 18.6644 44.0677C21.3261 44.7999 32 44.7999 32 44.7999C32 44.7999 42.6739 44.7999 45.3355 44.0677C46.8041 43.6645 47.9608 42.477 48.3533 40.969C49.0667 38.2357 49.0667 32.5333 49.0667 32.5333C49.0667 32.5333 49.0667 26.8307 48.3533 24.0975Z" fill="white"/>
<path d="M28.8 38.4001V27.7334L37.3334 33.0669L28.8 38.4001Z" fill="#FF0000"/>
</svg>
